<?xml version="1.0" standalone="no"?>
<!DOCTYPE svg PUBLIC "-//W3C//DTD SVG 20010904//EN"
 "http://www.w3.org/TR/2001/REC-SVG-20010904/DTD/svg10.dtd">
<svg version="1.0" xmlns="http://www.w3.org/2000/svg"
 width="512.000000pt" height="512.000000pt" viewBox="0 0 512.000000 512.000000"
 preserveAspectRatio="xMidYMid meet">

<g transform="translate(0.000000,512.000000) scale(0.100000,-0.100000)"
fill="#000000" stroke="none">
<path d="M440 5106 c-146 -40 -250 -149 -280 -294 -7 -31 -9 -813 -8 -2282 3
-2212 3 -2235 23 -2282 45 -105 118 -178 223 -223 46 -20 71 -20 1746 -23
1879 -3 1763 -6 1869 62 63 40 107 93 145 173 l27 58 3 476 c3 471 3 475 -18
502 -28 35 -80 37 -110 5 -20 -21 -20 -33 -20 -474 0 -484 -1 -495 -52 -565
-13 -17 -43 -43 -68 -57 l-45 -27 -635 -2 -635 -3 121 53 c66 29 134 63 150
75 16 11 486 479 1045 1039 971 972 1018 1020 1034 1072 22 66 16 141 -16 202
-30 60 -202 229 -262 258 -40 19 -60 22 -120 19 -40 -2 -88 -12 -107 -21 -20
-10 -471 -453 -1066 -1050 l-1030 -1032 -129 -307 -130 -308 -816 3 -816 2
-49 30 c-30 19 -60 49 -79 79 l-30 49 -3 1909 -2 1908 1870 0 1870 0 0 -675 0
-676 25 -24 c31 -32 69 -32 101 0 l24 25 -2 1022 -3 1023 -31 65 c-39 82 -75
124 -141 167 -105 67 8 63 -1848 62 -1303 0 -1690 -3 -1725 -13z m3443 -152
c26 -9 64 -33 87 -56 63 -63 70 -101 70 -380 l0 -238 -1871 0 -1870 0 3 263 3
262 28 47 c30 51 70 84 126 104 29 11 367 13 1707 14 1498 0 1675 -2 1717 -16z
m828 -2331 c142 -143 142 -162 6 -301 l-92 -92 -150 150 -150 151 96 94 c95
94 97 95 144 95 48 0 50 -1 146 -97z m-249 -555 l-52 -53 -150 150 -150 150
52 52 53 53 150 -150 150 -150 -53 -52z m-309 -16 l147 -147 -715 -715 -715
-715 -150 150 -150 150 712 712 c392 392 715 713 718 713 3 0 72 -66 153 -148z
m-1413 -1672 c0 -4 -33 -20 -74 -37 l-74 -31 -92 93 -93 94 33 76 33 76 134
-133 c73 -73 133 -135 133 -138z m-310 -131 c0 -5 -142 -69 -154 -69 -3 0 7
26 21 58 14 31 29 68 34 81 l10 24 44 -43 c25 -24 45 -47 45 -51z"/>
<path d="M2098 3563 l-1467 -3 -20 -26 c-27 -34 -26 -57 2 -88 l22 -26 1535
-1 1535 -1 22 27 c29 33 29 57 -1 92 -21 25 -30 27 -92 28 -38 1 -729 0 -1536
-2z"/>
<path d="M627 3019 c-46 -27 -41 -105 9 -128 18 -8 434 -11 1534 -11 1100 0
1516 3 1534 11 51 23 55 103 7 128 -28 15 -3059 15 -3084 0z"/>
<path d="M633 2488 c-48 -23 -51 -103 -4 -127 14 -8 488 -11 1543 -11 1660 0
1557 -4 1572 55 7 27 -7 62 -33 82 -21 16 -3044 17 -3078 1z"/>
<path d="M644 1960 c-26 -10 -54 -48 -54 -71 0 -9 9 -28 21 -43 l20 -26 1074
0 1074 0 20 26 c36 46 22 93 -33 114 -34 12 -2091 13 -2122 0z"/>
<path d="M627 1419 c-47 -28 -40 -107 11 -128 19 -8 257 -11 815 -9 l789 3 19
24 c25 30 24 62 -2 95 l-20 26 -797 0 c-538 -1 -803 -4 -815 -11z"/>
<path d="M632 893 c-21 -8 -43 -61 -36 -88 14 -56 3 -55 577 -55 l528 0 24 25
c32 31 32 69 0 100 l-24 25 -528 -1 c-290 0 -534 -3 -541 -6z"/>
</g>
</svg>
